<?xml version="1.0" encoding="utf-8"?>
<!-- Generator: Adobe Illustrator 27.2.0, SVG Export Plug-In . SVG Version: 6.00 Build 0)  -->
<svg version="1.1" id="Layer_1" xmlns="http://www.w3.org/2000/svg" xmlns:xlink="http://www.w3.org/1999/xlink" x="0px" y="0px"
	 viewBox="0 0 2500 2500" style="enable-background:new 0 0 2500 2500;" xml:space="preserve">
<style type="text/css">
	.st0{fill:#FFA631;stroke:#000000;stroke-width:30;stroke-miterlimit:10;}
</style>
<path class="st0" d="M2289,1108.8c-78.6-78.6-206-78.6-284.6,0h-412l291.3-291.3c111.2,0,201.3-90.1,201.3-201.3
	s-90.1-201.3-201.3-201.3c-111.2,0-201.3,90.1-201.3,201.3l-291.3,291.3v-412c78.6-78.6,78.6-206,0-284.6
	c-78.6-78.6-206.1-78.6-284.7,0s-78.6,206.1,0,284.6v412L815.1,616.2c0-111.2-90.1-201.3-201.3-201.3S412.6,505,412.6,616.2
	c0,111.2,90.1,201.3,201.3,201.3l291.3,291.3h-412c-78.6-78.6-206.1-78.6-284.7,0c-78.6,78.6-78.6,206.1,0,284.7
	c78.6,78.6,206.1,78.6,284.7,0h411.9l-291.3,291.3c-111.2,0-201.3,90.1-201.3,201.3c0,111.2,90.1,201.3,201.3,201.3
	c111.2,0,201.3-90.1,201.3-201.3l291.3-291.3v412c-78.6,78.6-78.6,206.1,0,284.7c78.6,78.6,206.1,78.6,284.7,0
	c78.6-78.6,78.6-206.1,0-284.7v-411.9l291.3,291.3c0,111.2,90.1,201.3,201.3,201.3c111.2,0,201.3-90.1,201.3-201.3
	c0-111.2-90.1-201.3-201.3-201.3l-291.3-291.3h412c78.6,78.6,206.1,78.6,284.6,0C2367.6,1314.8,2367.6,1187.4,2289,1108.8"/>
</svg>
