<?xml version="1.0" encoding="utf-8"?>
<!-- Generator: Adobe Illustrator 27.2.0, SVG Export Plug-In . SVG Version: 6.00 Build 0)  -->
<svg version="1.1" id="Layer_1" xmlns="http://www.w3.org/2000/svg" xmlns:xlink="http://www.w3.org/1999/xlink" x="0px" y="0px"
	 viewBox="0 0 2500 2500" style="enable-background:new 0 0 2500 2500;" xml:space="preserve">
<style type="text/css">
	.st0{fill:#33FFDD;stroke:#000000;stroke-width:100;stroke-miterlimit:10;}
</style>
<path class="st0" d="M2338.3,1101c-82.2-82.2-215.5-82.2-297.8,0h-431l304.8-304.7c116.3,0,210.6-94.3,210.6-210.6
	s-94.3-210.6-210.6-210.6s-210.6,94.3-210.6,210.6l-304.8,304.7v-431c82.2-82.2,82.2-215.5,0-297.7s-215.6-82.2-297.9,0
	c-82.2,82.2-82.2,215.6,0,297.7v431L796.3,585.7c0-116.3-94.3-210.6-210.6-210.6s-210.5,94.3-210.5,210.6s94.3,210.6,210.6,210.6
	L890.6,1101h-431c-82.2-82.2-215.6-82.2-297.9,0s-82.2,215.6,0,297.8s215.6,82.2,297.9,0h430.9l-304.8,304.7
	c-116.3,0-210.6,94.3-210.6,210.6c0,116.3,94.3,210.6,210.6,210.6s210.6-94.3,210.6-210.6l304.8-304.7v431
	c-82.2,82.2-82.2,215.6,0,297.8c82.2,82.2,215.6,82.2,297.9,0c82.2-82.2,82.2-215.6,0-297.8v-430.9l304.8,304.7
	c0,116.3,94.3,210.6,210.6,210.6c116.3,0,210.6-94.3,210.6-210.6c0-116.3-94.3-210.6-210.6-210.6L1609.5,1399h431
	c82.2,82.2,215.6,82.2,297.8,0C2420.6,1316.5,2420.6,1183.3,2338.3,1101"/>
</svg>
