<?xml version="1.0" encoding="utf-8"?>
<!-- Generator: Adobe Illustrator 27.2.0, SVG Export Plug-In . SVG Version: 6.00 Build 0)  -->
<svg version="1.1" xmlns="http://www.w3.org/2000/svg" xmlns:xlink="http://www.w3.org/1999/xlink" x="0px" y="0px"
	 viewBox="0 0 2500 2500" style="enable-background:new 0 0 2500 2500;" xml:space="preserve">
<style type="text/css">
	.st0{display:none;fill:#FFA631;stroke:#000000;stroke-width:30;stroke-miterlimit:10;}
	.st1{stroke:#000000;stroke-width:80;stroke-miterlimit:10;}
	.st2{fill:#99B2DD;stroke:#000000;stroke-width:80;stroke-miterlimit:10;}
</style>
<g id="Layer_1">
	<path class="st0" d="M2289,1108.8c-78.6-78.6-206-78.6-284.6,0h-412l291.3-291.3c111.2,0,201.3-90.1,201.3-201.3
		s-90.1-201.3-201.3-201.3c-111.2,0-201.3,90.1-201.3,201.3l-291.3,291.3v-412c78.6-78.6,78.6-206,0-284.6s-206.1-78.6-284.7,0
		s-78.6,206.1,0,284.6v412L815.1,616.2c0-111.2-90.1-201.3-201.3-201.3S412.6,505,412.6,616.2s90.1,201.3,201.3,201.3l291.3,291.3
		h-412c-78.6-78.6-206.1-78.6-284.7,0s-78.6,206.1,0,284.7s206.1,78.6,284.7,0h411.9l-291.3,291.3c-111.2,0-201.3,90.1-201.3,201.3
		c0,111.2,90.1,201.3,201.3,201.3s201.3-90.1,201.3-201.3l291.3-291.3v412c-78.6,78.6-78.6,206.1,0,284.7
		c78.6,78.6,206.1,78.6,284.7,0s78.6-206.1,0-284.7v-411.9l291.3,291.3c0,111.2,90.1,201.3,201.3,201.3
		c111.2,0,201.3-90.1,201.3-201.3c0-111.2-90.1-201.3-201.3-201.3l-291.3-291.3h412c78.6,78.6,206.1,78.6,284.6,0
		C2367.6,1314.8,2367.6,1187.4,2289,1108.8"/>
	<rect x="431.3" y="1075" class="st1" width="1637.4" height="350"/>
	<polygon class="st2" points="977.1,1250 977.1,700 2068.7,700 2068.7,150 431.3,150 431.3,1250 	"/>
	<polygon class="st2" points="1522.9,1256 1522.9,1806 431.3,1806 431.3,2356 2068.7,2356 2068.7,1256.9 	"/>
</g>
<g id="Ref">
</g>
</svg>
